# xmcd CD database file
#
# Track frame offsets:
#	150
#	12612
#	26254
#	39477
#	51071
#	63314
#	77352
#	87793
#	100410
#	114111
#	128821
#	145750
#	159035
#	173762
#
# Disc length: 2468 seconds
#
# Revision: 0
# Processed by: cddbd v1.5.2PL0 Copyright (c) Steve Scherf et al.
# Submitted via: CDex 1.75
#
DISCID=9c09a20e
DTITLE=Various Artist - Greatest Blues Standards
DYEAR=2019
DGENRE=Blues
TTITLE0=Spoonful - Howlin' Wolf
TTITLE1=Good Morning Little School Girl - Sonny Boy Williamson
TTITLE2=Worried Life Blues - Big Maceo
TTITLE3=Boom Boom - John Lee Hooker
TTITLE4=Cross Road Blues - Robert Johnson
TTITLE5=I'm Ready - Muddy Waters
TTITLE6=Rollin' and Tumblin' - Canned Heat
TTITLE7=Key To The Highway - Little Walter
TTITLE8=I'm A Man - Bo Diddley
TTITLE9=Sweet Little Angel - B.B.King
TTITLE10=Goin' Down Slow - Memphis Slim
TTITLE11=Mean Old World - T-Bone Walker
TTITLE12=You've Got To Love Her With Feeling - Freddie King
TTITLE13=Sitting On Top Of The World - Howlin' Wolf
EXTD=YEAR: 2019
EXTT0=
EXTT1=
EXTT2=
EXTT3=
EXTT4=
EXTT5=
EXTT6=
EXTT7=
EXTT8=
EXTT9=
EXTT10=
EXTT11=
EXTT12=
EXTT13=
PLAYORDER=
